inDegrees=yes
name=ik_lifting_orientations
DataType=double
version=3
OpenSimVersion=4.5-2024-01-10-34fd6af
endheader
time	pelvis_tilt	pelvis_list	pelvis_rotation	pelvis_tx	pelvis_ty	pelvis_tz	hip_flexion_r	hip_adduction_r	hip_rotation_r	knee_angle_r	knee_angle_r_beta	ankle_angle_r	subtalar_angle_r	mtp_angle_r	hip_flexion_l	hip_adduction_l	hip_rotation_l	knee_angle_l	knee_angle_l_beta	ankle_angle_l	subtalar_angle_l	mtp_angle_l	lumbar_extension	lumbar_bending	lumbar_rotation	arm_flex_r	arm_add_r	arm_rot_r	elbow_flex_r	pro_sup_r	wrist_flex_r	wrist_dev_r	arm_flex_l	arm_add_l	arm_rot_l	elbow_flex_l	pro_sup_l	wrist_flex_l	wrist_dev_l
1.55	-24.56927568118089	-10.11238721365177	-129.9084206543834	0	0.9399999998679526	0	45.53821373654662	-11.41989117841063	0	59.59974496103134	1.040211782918896	-5.62619021207284	0	0	45.53821373654662	-11.41989117841063	0	59.59974496103134	1.040211782918896	-5.62619021207284	0	0	-72.50412028541278	11.38814633078641	53.8393957034013	34.36055557750331	-33.14869639246461	12.00517558447081	45.10233439151145	3.500379069463337	0	0	0	-10.23915675620662	0	86.60470906416495	3.500379069463337	0	0
1.56	-23.74853232396027	-10.0418926213979	-128.7611757941264	0	0.9399999998679526	0	45.53795485388711	-11.41751362541601	0	59.59989668822701	1.040214431058026	-5.624825088330318	0	0	45.53795485388711	-11.41751362541601	0	59.59989668822701	1.040214431058026	-5.624825088330318	0	0	-70.76408640254411	12.56762567379157	52.09436484182284	33.53878755774698	-31.95445377444852	12.0419112344883	45.81048145933021	3.499204260728568	0	0	0	-10.24033456151119	0	86.60584844749754	3.499204260728568	0	0
1.57	-22.83196084418493	-9.939989470469781	-127.5424678391985	0	0.9399999998679526	0	45.53769317491007	-11.4151199095597	0	59.60005035034737	1.040217112967962	-5.623452260516786	0	0	45.53769317491007	-11.4151199095597	0	59.60005035034737	1.040217112967962	-5.623452260516786	0	0	-68.57353605617222	13.81957762431819	49.94049518619771	32.56191543500867	-30.6452106458481	12.32629974827182	46.50176559807096	3.498015726609567	0	0	0	-10.2415269417279	0	86.60700114283628	3.498015726609567	0	0
1.58	-21.93642892315256	-9.80863292587957	-126.3941501693891	0	0.9399999998679526	0	45.5375151481799	-11.41348998286364	0	59.60015475103605	1.04021893510372	-5.622517512930043	0	0	45.5375151481799	-11.41348998286364	0	59.60015475103605	1.04021893510372	-5.622517512930043	0	0	-66.25616978341465	14.96788318952146	47.67415915380678	31.39664812727817	-29.33067423822171	12.33164259592055	47.21523695715906	3.497207484357506	0	0	0	-10.24233748216339	0	86.60778501338847	3.497207484357506	0	0
1.59	-21.03649447577314	-9.640398038343193	-125.302679802701	0	0.9399999998679526	0	45.53728891131357	-11.41141058805897	0	59.60028687859966	1.040221241164738	-5.621324484624932	0	0	45.53728891131357	-11.41141058805897	0	59.60028687859966	1.040221241164738	-5.621324484624932	0	0	-63.82744255190008	15.93934401404606	45.40491896545787	30.27486414623135	-28.20168687411028	12.32467990302947	47.94946452465048	3.496181879359531	0	0	0	-10.24336465557116	0	86.60877969163278	3.496181879359531	0	0
1.6	-19.86187663930653	-9.452225060379371	-123.58069578005	0	0.9399999998679526	0	45.52624219328744	-11.34441088142298	0	59.60856536600726	1.040365728027085	-5.586476919713452	0	0	45.52624219328744	-11.34441088142298	0	59.60856536600726	1.040365728027085	-5.586476919713452	0	0	-60.9768176143148	17.21634222243783	42.56019606241998	29.40714177025096	-27.18902982032934	12.81812386290784	48.40284251213907	3.440691203662243	0	0	0	-10.3036250518069	0	86.66259963638603	3.440691203662243	0	0
1.61	-18.6768496730535	-9.229898063191037	-121.8372361568923	0	0.9399999998679526	0	45.51220300073777	-11.26113963365669	0	59.61900124915242	1.040547868548322	-5.543568889246628	0	0	45.51220300073777	-11.26113963365669	0	59.61900124915242	1.040547868548322	-5.543568889246628	0	0	-58.11382938687081	18.38263500256607	39.55881041899515	28.51489491986769	-26.12345176467851	13.34545606617339	48.89000518246723	3.369989304179863	0	0	0	-10.38051301064873	0	86.73117287631494	3.369989304179863	0	0
1.62	-17.49199506904647	-8.985681534003394	-120.0810360251121	0	0.9399999998679526	0	45.50122179121302	-11.19891819296702	0	59.62721930240255	1.040691300635641	-5.511936110889421	0	0	45.50122179121302	-11.19891819296702	0	59.62721930240255	1.040691300635641	-5.511936110889421	0	0	-56.13575304512967	21.59043214970884	31.29239113809504	29.94199404761198	-24.5363460688885	20.59818574747732	49.25618077430545	3.314210146101928	0	0	0	-10.44154146670962	0	86.78527284456499	3.314210146101928	0	0
1.63	-16.11246374445004	-8.509368880951502	-118.7299474975791	0	0.9399999998679526	0	45.49272528310454	-11.1514366366259	0	59.63357049552758	1.040802149867103	-5.487873660532572	0	0	45.49272528310454	-11.1514366366259	0	59.63357049552758	1.040802149867103	-5.487873660532572	0	0	-52.24346570383132	21.63675798880066	28.69852904131035	28.39091052704479	-23.49032567017429	20.20890079769838	49.6640009853522	3.270918113924369	0	0	0	-10.48901492762415	0	86.82726165133471	3.270918113924369	0	0
1.64	-14.7362961439021	-7.936197600988503	-117.8526379802103	0	0.9399999998679526	0	45.48074451142466	-11.08674554924118	0	59.6425467379318	1.040958814851513	-5.455473142342012	0	0	45.48074451142466	-11.08674554924118	0	59.6425467379318	1.040958814851513	-5.455473142342012	0	0	-48.62618085664872	21.22447326778205	26.51325104316776	26.87592256543858	-22.29700733632216	20.0255923379136	49.95420682054156	3.20953056564344	0	0	0	-10.55658622107832	0	86.88680136045578	3.20953056564344	0	0
1.65	-13.56979189016834	-7.463125116843208	-116.9136971855635	0	0.9399999998679526	0	45.48055652445956	-11.08527763312173	0	59.6426574706454	1.040960747501955	-5.454673119113544	0	0	45.48055652445956	-11.08527763312173	0	59.6426574706454	1.040960747501955	-5.454673119113544	0	0	-45.55380762652175	21.01100381948149	24.14452585162076	25.79589075502446	-21.30095777020108	20.42847570294689	50.11755795086528	3.208653279653451	0	0	0	-10.55748297573722	0	86.88765220788353	3.208653279653451	0	0
1.66	-12.38291596794113	-7.008113160404169	-115.4965611805671	0	0.9399999998679526	0	45.48036540175092	-11.08379312225084	0	59.64277042420328	1.040962718913442	-5.453865103376526	0	0	45.48036540175092	-11.08379312225084	0	59.64277042420328	1.040962718913442	-5.453865103376526	0	0	-42.16798878980612	20.98239560508939	21.09696572809529	24.52985444975782	-20.21314856398931	20.91092194034726	50.3623512136834	3.207760132092313	0	0	0	-10.55839697470173	0	86.88851843935679	3.207760132092313	0	0
1.67	-11.14431026690176	-6.534792487075868	-113.7781340578301	0	0.9399999998679526	0	45.46913981571215	-11.0254823095675	0	59.65118577074712	1.041109594418329	-5.425038913882402	0	0	45.46913981571215	-11.0254823095675	0	59.65118577074712	1.041109594418329	-5.425038913882402	0	0	-38.51721263720081	20.74974974385828	17.99290032162289	23.14820837991527	-19.01556790253295	20.79874610920458	50.44694174769602	3.149873366158833	0	0	0	-10.62239050115507	0	86.94466286458223	3.149873366158833	0	0
1.68	-9.760275714032323	-5.944917211932165	-111.9157451851407	0	0.9399999998679526	0	45.46895723156426	-11.02411317519538	0	59.65129389380108	1.041111481521618	-5.424301932207441	0	0	45.46895723156426	-11.02411317519538	0	59.65129389380108	1.041111481521618	-5.424301932207441	0	0	-34.74184558595886	20.30716081253096	14.70035433112047	21.7587142267239	-17.82344623029162	20.89868947184625	50.53082174075722	3.149014715648173	0	0	0	-10.62327312099293	0	86.94549564156122	3.149014715648173	0	0
1.69	-8.41114150884229	-5.314557028250357	-110.4140050211517	0	0.9399999998679526	0	45.46881778862362	-11.02307550946518	0	59.65137687745123	1.041112929859538	-5.423744390211024	0	0	45.46881778862362	-11.02307550946518	0	59.65137687745123	1.041112929859538	-5.423744390211024	0	0	-30.95867642166204	19.40125991347839	11.45582278770505	20.39116487498473	-16.39039823007503	21.25115592693574	50.46301270097047	3.148357627191632	0	0	0	-10.62394966680988	0	86.94613293061293	3.148357627191632	0	0
1.7	-7.275883597138814	-4.763315480019621	-108.652539510447	0	0.9399999998679526	0	45.46862205231251	-11.02160167338856	0	59.65149230029861	1.041114944368257	-5.422950664824512	0	0	45.46862205231251	-11.02160167338856	0	59.65149230029861	1.041114944368257	-5.422950664824512	0	0	-27.7054900143104	18.65362141060582	8.812676675429705	19.08475807879698	-15.3708156956315	20.87637702188558	50.43886173018868	3.147438496706264	0	0	0	-10.62489322709809	0	86.94702436463848	3.147438496706264	0	0
1.71	-6.334515789056765	-4.281843600639893	-106.7438076936321	0	0.9399999998679526	0	45.46840756784244	-11.0199843542251	0	59.65161856070588	1.041117148028079	-5.422079595315769	0	0	45.46840756784244	-11.0199843542251	0	59.65161856070588	1.041117148028079	-5.422079595315769	0	0	-24.9099761963881	17.93588151231976	6.435729395703401	17.97284683070859	-14.32347116499328	20.3261492136441	50.23813434434768	3.146431913352039	0	0	0	-10.62592603427912	0	86.94800061608058	3.146431913352039	0	0
1.72	-5.392535778583532	-3.790255951195704	-104.6592514786508	0	0.9399999998679526	0	45.46816796346999	-11.01816846429794	0	59.65175894237792	1.041119598150465	-5.421100854303335	0	0	45.46816796346999	-11.01816846429794	0	59.65175894237792	1.041119598150465	-5.421100854303335	0	0	-21.98956242990633	16.94491740843982	4.228518516605059	16.6942518214311	-13.28422738498648	19.39915227221868	50.05814032222693	3.145309377457606	0	0	0	-10.62707609444803	0	86.94908932528801	3.145309377457606	0	0
1.73	-4.399565905587962	-3.233014285330177	-102.1214652613922	0	0.9399999998679526	0	45.46752345020671	-11.01331187507013	0	59.65213639977237	1.041126186024784	-5.418490122351493	0	0	45.46752345020671	-11.01331187507013	0	59.65213639977237	1.041126186024784	-5.418490122351493	0	0	-18.91629613597489	15.82117082724609	1.585077873851686	15.219039934796	-12.18660776538603	18.31026669227475	50.33652660583075	3.142289003747702	0	0	0	-10.63017035262425	0	86.95201868278733	3.142289003747702	0	0
1.74	-3.41933646612144	-2.640542728963133	-99.18369292422061	0	0.9399999998679526	0	45.4670945224812	-11.01011386060737	0	59.65238899501824	1.0411305946435	-5.416776050552694	0	0	45.4670945224812	-11.01011386060737	0	59.65238899501824	1.0411305946435	-5.416776050552694	0	0	-16.03929265769838	14.78089318237345	-1.683861797860635	14.07264258838165	-11.12048147873833	17.44018000407173	50.30619887552423	3.140274008778694	0	0	0	-10.63223864576664	0	86.95397295961514	3.140274008778694	0	0
1.75	-2.653063476942771	-2.150564354408072	-96.37680350094878	0	0.9399999998679526	0	45.46666254400262	-11.00689948053032	0	59.6526434659386	1.04113503599891	-5.415054566083489	0	0	45.46666254400262	-11.00689948053032	0	59.6526434659386	1.04113503599891	-5.415054566083489	0	0	-13.5765778162451	13.82692660702531	-4.995114864762258	13.03358760103588	-10.16042090356338	16.95888597806148	50.25293702943032	3.138244080151726	0	0	0	-10.63432270179031	0	86.95594172039033	3.138244080151726	0	0
1.76	-2.097918909229682	-1.772227685662612	-93.26646280207335	0	0.9399999998679526	0	45.46247273113315	-10.98536571591537	0	59.65575193675108	1.04118928904929	-5.404457861693356	0	0	45.46247273113315	-10.98536571591537	0	59.65575193675108	1.04118928904929	-5.404457861693356	0	0	-11.29491698316404	12.83722607123692	-8.29471857755985	11.87559244091532	-10.57219214372725	16.49092523635536	50.95071863706016	3.116614667373194	0	0	0	-10.65824695087917	0	86.97692011171134	3.116614667373194	0	0
1.77	-1.512823053447606	-1.337186549134907	-89.39192476289035	0	0.9399999998679526	0	45.46191188192946	-10.98122795140526	0	59.65608086095524	1.041195029859642	-5.402250357497082	0	0	45.46191188192946	-10.98122795140526	0	59.65608086095524	1.041195029859642	-5.402250357497082	0	0	-8.932154573596877	11.70880932842218	-12.51102629292158	10.34564321541892	-9.856643041286919	16.19593012634945	51.47197124192297	3.113977684833833	0	0	0	-10.66095446431162	0	86.97947763566425	3.113977684833833	0	0
1.78	-0.9002925237670965	-0.8254511155001281	-84.89740202930918	0	0.9399999998679526	0	45.46142477566064	-10.97764616259215	0	59.65636671443372	1.04120001894402	-5.400341927147048	0	0	45.46142477566064	-10.97764616259215	0	59.65636671443372	1.04120001894402	-5.400341927147048	0	0	-6.762155878931881	10.51991709148588	-16.70333723395182	8.647283765326197	-9.492302218626884	15.22574686005551	52.39667462955487	3.111686303001446	0	0	0	-10.66330791413561	0	86.98169997317079	3.111686303001446	0	0
